<?xml version="1.0" encoding="utf-8"?>
<!-- Generator: Adobe Illustrator 17.0.0, SVG Export Plug-In . SVG Version: 6.00 Build 0)  -->
<!DOCTYPE svg PUBLIC "-//W3C//DTD SVG 1.1//EN" "http://www.w3.org/Graphics/SVG/1.1/DTD/svg11.dtd">
<svg version="1.1" id="Layer_1" xmlns="http://www.w3.org/2000/svg" xmlns:xlink="http://www.w3.org/1999/xlink" x="0px" y="0px"
	 width="128px" height="128px" viewBox="0 0 128 128" enable-background="new 0 0 128 128" xml:space="preserve">
<g>
	<path fill="#FFFFFF" d="M93.573,15.973H34.427v12.86h7.143c-0.117,0.824-0.185,1.707-0.185,2.671v57.908
		c0,12.49,10.125,22.614,22.614,22.614s22.614-10.125,22.614-22.614V31.505c0-0.965-0.067-1.848-0.185-2.671h7.143V15.973z
		 M73.692,89.413c0,5.344-4.348,9.692-9.692,9.692s-9.692-4.348-9.692-9.692V32.134c2.595-0.381,7.044-0.381,9.692-0.381
		c2.647,0,7.097,0,9.692,0.381V89.413z"/>
	<path fill="#FFFFFF" d="M58.606,88.868c0,2.974,2.42,5.394,5.394,5.394s5.394-2.42,5.394-5.394V61.27H58.606V88.868z"/>
</g>
</svg>
