<?xml version="1.0" encoding="utf-8"?>
<!-- Generator: Adobe Illustrator 17.0.0, SVG Export Plug-In . SVG Version: 6.00 Build 0)  -->
<!DOCTYPE svg PUBLIC "-//W3C//DTD SVG 1.1//EN" "http://www.w3.org/Graphics/SVG/1.1/DTD/svg11.dtd">
<svg version="1.1" id="Layer_1" xmlns="http://www.w3.org/2000/svg" xmlns:xlink="http://www.w3.org/1999/xlink" x="0px" y="0px"
	 width="128px" height="128px" viewBox="0 0 128 128" enable-background="new 0 0 128 128" xml:space="preserve">
<path fill="#FFFFFF" d="M32.269,79.866c0,17.524,14.206,31.731,31.731,31.731S95.731,97.39,95.731,79.866
	C95.731,60.034,64,16.404,64,16.404S32.269,60.034,32.269,79.866z M75.679,75.899c0-2.312,1.874-4.187,4.187-4.187
	c2.312,0,4.187,1.874,4.187,4.187c0,13.244-10.774,24.018-24.018,24.018c-2.312,0-4.187-1.874-4.187-4.187
	c0-2.312,1.874-4.187,4.187-4.187C68.661,91.544,75.679,84.526,75.679,75.899z"/>
</svg>
