<?xml version="1.0" encoding="utf-8"?>
<!-- Generator: Adobe Illustrator 17.0.0, SVG Export Plug-In . SVG Version: 6.00 Build 0)  -->
<!DOCTYPE svg PUBLIC "-//W3C//DTD SVG 1.1//EN" "http://www.w3.org/Graphics/SVG/1.1/DTD/svg11.dtd">
<svg version="1.1" id="Layer_1" xmlns="http://www.w3.org/2000/svg" xmlns:xlink="http://www.w3.org/1999/xlink" x="0px" y="0px"
	 width="128px" height="128px" viewBox="0 0 128 128" enable-background="new 0 0 128 128" xml:space="preserve">
<g>
	<path fill="#FFFFFF" d="M77.043,82.699C89.92,77.513,99.037,64.9,99.037,50.19c0-19.319-15.717-35.036-35.037-35.036
		S28.963,30.87,28.963,50.19c0,14.71,9.117,27.324,21.994,32.509v5.341H29.475v8.695h69.05V88.04H77.043V82.699z M42.773,50.19
		c0-11.704,9.522-21.226,21.227-21.226c4.853,0,9.328,1.641,12.907,4.391c-4.504,2.647-10.585,7.303-14.945,9.445
		c-3.022,1.485-5.634,3.859-5.634,7.39c0,4.237,3.435,7.672,7.672,7.672c3.292,0,5.683-2.265,7.181-4.99
		c2.305-4.193,7.171-10.585,9.867-15.314c2.624,3.532,4.179,7.903,4.179,12.631c0,11.705-9.522,21.227-21.227,21.227
		S42.773,61.894,42.773,50.19z"/>
	<rect x="29.475" y="104.151" fill="#FFFFFF" width="69.05" height="8.695"/>
</g>
</svg>
