<?xml version="1.0" encoding="utf-8"?>
<!-- Generator: Adobe Illustrator 17.0.0, SVG Export Plug-In . SVG Version: 6.00 Build 0)  -->
<!DOCTYPE svg PUBLIC "-//W3C//DTD SVG 1.1//EN" "http://www.w3.org/Graphics/SVG/1.1/DTD/svg11.dtd">
<svg version="1.1" id="Layer_1" xmlns="http://www.w3.org/2000/svg" xmlns:xlink="http://www.w3.org/1999/xlink" x="0px" y="0px"
	 width="128px" height="128px" viewBox="0 0 128 128" enable-background="new 0 0 128 128" xml:space="preserve">
<path fill="#FFFFFF" d="M93.561,46.935H80.429c0.642-1.817,0.995-3.771,0.995-5.808c0-9.623-7.801-17.424-17.424-17.424
	s-17.424,7.801-17.424,17.424c0,2.037,0.353,3.991,0.995,5.808H34.439l-10.902,57.362h80.925L93.561,46.935z M56.45,41.127
	c0-4.163,3.387-7.55,7.55-7.55s7.55,3.387,7.55,7.55c0,2.333-1.065,4.422-2.733,5.808h-9.635
	C57.514,45.549,56.45,43.46,56.45,41.127z"/>
</svg>
