<?xml version="1.0" encoding="utf-8"?>
<!-- Generator: Adobe Illustrator 17.0.0, SVG Export Plug-In . SVG Version: 6.00 Build 0)  -->
<!DOCTYPE svg PUBLIC "-//W3C//DTD SVG 1.1//EN" "http://www.w3.org/Graphics/SVG/1.1/DTD/svg11.dtd">
<svg version="1.1" id="Layer_1" xmlns="http://www.w3.org/2000/svg" xmlns:xlink="http://www.w3.org/1999/xlink" x="0px" y="0px"
	 width="128px" height="128px" viewBox="0 0 128 128" enable-background="new 0 0 128 128" xml:space="preserve">
<path fill="#FFFFFF" d="M105.748,28.437c-10.5,0-19.013,8.512-19.013,19.013c0,2.863,0.637,5.575,1.77,8.01l-7.847,7.847
	c-2.435-1.133-5.148-1.77-8.01-1.77c-8.207,0-15.199,5.2-17.862,12.484H40.114c-2.663-7.284-9.655-12.484-17.862-12.484
	c-10.5,0-19.013,8.512-19.013,19.013c0,10.5,8.512,19.013,19.013,19.013c8.207,0,15.199-5.2,17.862-12.484h14.671
	c2.663,7.285,9.655,12.484,17.862,12.484c10.5,0,19.013-8.512,19.013-19.013c0-2.863-0.637-5.575-1.77-8.01l7.847-7.847
	c2.435,1.133,5.147,1.77,8.01,1.77c10.5,0,19.013-8.512,19.013-19.013C124.76,36.95,116.248,28.437,105.748,28.437z"/>
</svg>
