<?xml version="1.0" encoding="utf-8"?>
<!-- Generator: Adobe Illustrator 17.0.0, SVG Export Plug-In . SVG Version: 6.00 Build 0)  -->
<!DOCTYPE svg PUBLIC "-//W3C//DTD SVG 1.1//EN" "http://www.w3.org/Graphics/SVG/1.1/DTD/svg11.dtd">
<svg version="1.1" id="Layer_1" xmlns="http://www.w3.org/2000/svg" xmlns:xlink="http://www.w3.org/1999/xlink" x="0px" y="0px"
	 width="128px" height="128px" viewBox="0 0 128 128" enable-background="new 0 0 128 128" xml:space="preserve">
<g>
	<path fill="#FFFFFF" d="M77.992,110.608c-0.041,0-0.083,0-0.124-0.001c-3.141-0.051-5.93-2.021-7.027-4.964L49.234,47.71
		l-8.175,23.935c-1.055,3.089-3.958,5.165-7.222,5.165H9.851V61.547h18.528l13.317-38.99c1.043-3.052,3.891-5.12,7.116-5.164
		c0.036-0.001,0.072-0.001,0.107-0.001c3.182,0,6.035,1.976,7.15,4.965l22.262,59.689l7.773-18.945
		c1.175-2.864,3.964-4.734,7.06-4.734h24.985v15.263H98.282l-13.23,32.243C83.876,108.741,81.083,110.608,77.992,110.608z"/>
</g>
</svg>
